HIERARCHY
ROOT Hips
{
	OFFSET	0.00	0.00	0.00
	CHANNELS 6 Xposition Yposition Zposition Zrotation Xrotation Yrotation
	JOINT Spine
	{
		OFFSET	 0.00	0.01	 0.00
		CHANNELS 3 Zrotation Xrotation Yrotation
		JOINT Spine1
		{
			OFFSET	 0.00	 2.45913012437421	 0.00
			CHANNELS 3 Zrotation Xrotation Yrotation
            JOINT Neck
            {
                OFFSET	 0.00	 2.48462964506057	 0.00
                CHANNELS 3 Zrotation Xrotation Yrotation
                JOINT Head
                {
                    OFFSET	 0.00	 0.927524780924562	 0.00
                    CHANNELS 3 Zrotation Xrotation Yrotation
                    End Site 
                    {
                        OFFSET	 0.00	 1.14999962169752	 0.00
                    }
                }
            }
			JOINT LeftShoulder
			{
				OFFSET	 0.00	 2.48462964506057	 0.00
				CHANNELS 3 Zrotation Xrotation Yrotation
				JOINT LeftUpArm
				{
					OFFSET	 0.00	 1.24881979654096	 0.00
					CHANNELS 3 Zrotation Xrotation Yrotation
					JOINT LeftForeArm
					{
						OFFSET	 0.00	2.59758046908119	 0.00
						CHANNELS 3 Zrotation Xrotation Yrotation
						JOINT LeftHand
						{
							OFFSET	 0.00	2.45542024364365	 0.00
							CHANNELS 3 Zrotation Xrotation Yrotation
							JOINT LeftHandThumb 
							{
								OFFSET	 0.00	0.00	 0.00
								CHANNELS 3 Zrotation Xrotation Yrotation
								End Site
								{
									OFFSET	 0.00	0.00	1.00000003353624
								}
							}
							JOINT L_Wrist_End 
							{
								OFFSET	 0.00	0.99999967115358	 0.00
								CHANNELS 3 Zrotation Xrotation Yrotation
								End Site 
								{
									OFFSET	 0.00	 0.00	 0.00
								}
							}
						}
					}
				}
			}
			JOINT RightShoulder
			{
				OFFSET	 0.00	 2.48462964506057	 0.00
				CHANNELS 3 Zrotation Xrotation Yrotation
				JOINT RightUpArm
				{
					OFFSET	 0.00	 1.24881979654096	 0.00
					CHANNELS 3 Zrotation Xrotation Yrotation
					JOINT RightForeArm
					{
						OFFSET	 0.00	2.59758046908119	 0.00
						CHANNELS 3 Zrotation Xrotation Yrotation
						JOINT RightHand
						{
							OFFSET	 0.00	2.45542024364365	 0.00
							CHANNELS 3 Zrotation Xrotation Yrotation
							JOINT RightHandThumb 
							{
								OFFSET	 0.00	0.00	 0.00
								CHANNELS 3 Zrotation Xrotation Yrotation
								End Site
								{
									OFFSET	 0.00	0.00	1.00000003353624
								}
							}
							JOINT R_Wrist_End 
							{
								OFFSET	 0.00	0.99999967115358	 0.00
								CHANNELS 3 Zrotation Xrotation Yrotation
								End Site 
								{
									OFFSET	 0.00	 0.00	 0.00
								}
							}
						}
					}
				}
			}
		}
	}
	JOINT LeftUpLeg
	{
		OFFSET	 1.2719394002717	 0.00	 0.00
		CHANNELS 3 Zrotation Xrotation Yrotation
		JOINT LeftLowLeg
		{
			OFFSET	 0.00	-4.3429100912261	 0.00
			CHANNELS 3 Zrotation Xrotation Yrotation
			JOINT LeftFoot
			{
				OFFSET	 0.00	-4.48767017425826	 0.00
				CHANNELS 3 Zrotation Xrotation Yrotation
				JOINT LeftToeBase
                {
                    OFFSET	 0.00	0.00	 1.51507020887566
                    CHANNELS 3 Zrotation Xrotation Yrotation
                    End Site 
                    {
                        OFFSET	 0.00	0.00	 0.75000010571191
                    }
                }
			}
		}
	}
	JOINT RightUpLeg
	{
		OFFSET	 -1.2719393604653	 0.00	 0.00
		CHANNELS 3 Zrotation Xrotation Yrotation
		JOINT RightLowLeg
		{
			OFFSET	 0.00	-4.3429100912261	 0.00
			CHANNELS 3 Zrotation Xrotation Yrotation
			JOINT RightFoot
			{
				OFFSET	 0.00	-4.48767017425826	 0.00
				CHANNELS 3 Zrotation Xrotation Yrotation
				JOINT RightToeBase
                {
                    OFFSET	 0.00	0.00	 1.51507020887566
                    CHANNELS 3 Zrotation Xrotation Yrotation
                    End Site 
                    {
                        OFFSET	 0.00	0.00	 0.749999965609858
                    }
                }   
			}
		}
	}
}
MOTION 
Frames:	6 
Frame Time: 0.02 
  1.4938400268554688 -0.5023860168457032 6.9613800048828125 -11.9479 55.0511 371.038 -4.65633 17.0654 -0.930699 23.0419 30.8095 -6.23946 -23.0036 65.4718 373.794 60.8461 -86.7436 762.78 -127.3525 0.186577 6.31869 -36.2285 19.4403 19.297 0.0 99.9336 0.0 36.5531 -15.8355 -21.2855 0.0 0.0 0.0 0.0 0.0 0.0 113.007 3.94347 -377.398 26.522 21.722 -7.49821 0.0 100.992 0.0 -20.6491 -13.8138 22.7358 0.0 0.0 0.0 0.0 0.0 0.0 5.33801 -48.1854 -0.623016 0.0 106.472 0.0 -23.5013 17.87119 9.26248 0.0 -53.4923 0.0 1.68312 -28.969 -3.09672 0.0 61.3478 0.0 23.997 17.50959 11.3786 0.0 -50.0241 0.0 
  1.4884800720214844 -0.49035598754882814 6.957570190429688 -11.745 54.8832 370.971 -4.91465 17.1978 -0.990829 23.4719 31.0109 -6.48872 -22.916 65.9257 373.729 51.7248 -86.1195 753.8 -127.4633 0.29161 6.42659 -36.815 19.3627 18.0613 0.0 100.55 0.0 35.5932 -16.1841 -22.0939 0.0 0.0 0.0 0.0 0.0 0.0 113.1037 3.96543 -377.225 26.9842 22.1942 -7.6214 0.0 101.149 0.0 -22.9103 -12.9172 20.2166 0.0 0.0 0.0 0.0 0.0 0.0 5.75449 -48.4378 0.552812 0.0 107.229 0.0 -23.9859 17.912651 9.2371 0.0 -53.3912 0.0 1.59712 -28.5627 -3.21316 0.0 60.6816 0.0 23.0847 17.53164 11.3509 0.0 -49.7242 0.0 
  1.481929931640625 -0.47715999603271486 6.954710083007813 -11.5125 54.687 370.831 -5.25287 17.5376 -0.999682 23.9897 30.995 -6.63451 -23.7491 66.388 374.663 46.3302 -85.735 748.132 -127.682495 0.332668 6.54395 -37.4809 19.2556 16.7807 0.0 101.092 0.0 34.8031 -16.1458 -21.9806 0.0 0.0 0.0 0.0 0.0 0.0 113.2786 3.9355 -377.198 27.1906 22.6711 -7.48477 0.0 101.578 0.0 -22.9646 -13.3991 20.4939 0.0 0.0 0.0 0.0 0.0 0.0 6.23579 -48.475 1.71079 0.0 107.697 0.0 -24.7575 18.02621 9.08677 0.0 -53.8922 0.0 1.55402 -28.1615 -3.23907 0.0 60.1516 0.0 21.7366 17.48662 11.1323 0.0 -49.439 0.0 
  1.4745599365234374 -0.4635499954223633 6.9522900390625 -11.2759 54.4756 370.595 -5.65373 18.0123 -0.952018 24.497 30.8233 -6.69077 -23.9713 66.6578 374.816 39.3176 -85.2289 741.186 -127.9236 0.276696 6.54975 -38.2365 19.0748 15.6437 0.0 101.775 0.0 34.3594 -16.2923 -20.9764 0.0 0.0 0.0 0.0 0.0 0.0 113.3714 4.00475 -376.976 27.5809 22.8224 -7.79665 0.0 102.111 0.0 -23.2516 -13.4739 20.952 0.0 0.0 0.0 0.0 0.0 0.0 6.86 -48.294 2.91879 0.0 107.936 0.0 -25.7637 18.04072 8.44122 0.0 -54.2371 0.0 1.55783 -27.8241 -3.21871 0.0 59.9005 0.0 20.8629 17.58963 10.7423 0.0 -49.5013 0.0 
  1.4673800659179688 -0.4512120056152344 6.950869750976563 -10.9861 54.3359 370.231 -6.10168 18.4219 -0.843868 24.9907 30.7017 -6.72155 -24.7783 66.7092 375.669 33.4563 -84.8604 735.128 -128.1565 0.208602 6.63365 -38.819 18.9887 14.7119 0.0 102.4 0.0 34.3586 -16.0178 -20.1202 0.0 0.0 0.0 0.0 0.0 0.0 113.525 3.9647 -376.897 27.6744 23.4085 -7.88508 0.0 102.58 0.0 -22.9899 -14.1279 21.326 0.0 0.0 0.0 0.0 0.0 0.0 7.47943 -47.9859 4.09961 0.0 108.034 0.0 -26.5903 17.808361 7.45438 0.0 -54.368 0.0 1.52044 -27.698 -3.20644 0.0 59.8807 0.0 19.8239 17.70365 10.4403 0.0 -50.3617 0.0 
  1.4606199645996094 -0.44108001708984373 6.950339965820312 -10.7626 54.2433 369.908 -6.33258 18.8053 -0.714936 25.0783 30.591 -6.64137 -25.0833 66.742 376.043 31.4274 -84.5919 733.035 -128.3376 0.103287 6.70561 -39.1398 18.9851 14.0726 0.0 103.036 0.0 34.5292 -16.0781 -19.3956 0.0 0.0 0.0 0.0 0.0 0.0 113.5535 4.09218 -376.835 28.0885 23.4536 -8.24222 0.0 103.225 0.0 -23.4404 -13.6215 21.296 0.0 0.0 0.0 0.0 0.0 0.0 8.09202 -47.613 5.16955 0.0 108.069 0.0 -27.5147 17.3576 5.8572 0.0 -54.782 0.0 1.48739 -27.6854 -3.21132 0.0 60.0077 0.0 19.8589 17.78007 10.3225 0.0 -50.4488 0.0 
